<?xml version="1.0" encoding="utf-8"?>
<!-- Generator: Adobe Illustrator 14.0.0, SVG Export Plug-In  -->
<!DOCTYPE svg PUBLIC "-//W3C//DTD SVG 1.1//EN" "http://www.w3.org/Graphics/SVG/1.1/DTD/svg11.dtd" [
	<!ENTITY ns_flows "http://ns.adobe.com/Flows/1.0/">
]>
<svg version="1.1"
	 xmlns="http://www.w3.org/2000/svg" xmlns:xlink="http://www.w3.org/1999/xlink" xmlns:a="http://ns.adobe.com/AdobeSVGViewerExtensions/3.0/"
	 x="0px" y="0px">
<defs>
</defs>
<path fill="#010101" d="M109.25,72.25L109.25,72.25l-0.5-0.5l0,0H108h-0.75l-1,0.5l0,0l-1-0.25l0,0h-0.75l-0.75,0.25l0,0h-1l0,0
	l-1.5,0.25l-1.75,0.25l0,0H99h-0.5l0,0L98,72.5l0,0L97.75,70l-0.5-1L97,68l0,0l-0.5-1.25l0,0l-0.5-0.5l0,0l-0.75-0.75l-0.5-0.25
	H94.5h-0.25l0,0h-1l0,0L93,65l-0.5-0.5l-0.25-1l-0.5-1l-0.5-0.25L90.75,62l0,0h-0.5l-0.75,0.25L89,62.5V63l0,0v1l0,0l-0.25,0.75
	v0.75l0,0L89,67v1.5l0,0L88.75,69v0.75l0,0L89,70.5l0.5,0.75l0,0v0.5l0.25,0.75l0,0l1,1.25l0,0l0.25,0.5v0.5l0,0l0.25,0.75v0.25v0.5
	l0,0L90.75,77L90,77.75l0,0L89.25,78l0,0l-0.75,0.5l-1,0.25l0,0L86.25,79l0,0h-0.5H85l0,0l-0.75-0.25l-0.75-0.5l0,0H82l0,0l-2.25-1
	l0,0H77.5l0,0L76.75,77l0,0h-1l0,0l-0.25-0.25l0,0h-0.75l0,0l-1-0.25l0,0h-1l0,0L71,76l-0.75-0.5l-0.5-0.5l0,0v-0.5L70,74.25
	l0.75-0.5l0,0l0.5-0.5l0,0h0.5l0,0l0.75-0.5l0,0L73,72.5l0,0l2-1.5l0,0l0.75-0.25l0,0l1-0.75l1-1l0,0v-0.25l0,0L79,68l0,0l0.25-0.25
	l0,0l0,0l0,0l0.5-0.5l0,0L80.5,67l0,0l1.25-1l0,0v-0.25l0,0l0.5-0.25l0,0l0.5-0.5l0,0v-0.25l0,0l0.75-0.5l0.5-0.5l0,0l1-0.25l0,0
	l0.75-0.5l0,0H87l0,0l0.75-0.25l0,0l1.75-1l0,0l0.25-0.25L90,61l0,0h1l0,0l0.75-0.5l0.5-0.5l0,0H93l0,0l0,0l0,0l0.5-0.25l0,0V59.5
	l0,0h0.75l0,0h0.5l0,0V60v0.5l0,0l0.5,1.5l0,0L96,63l1.25,1.25l1.25,1l0.75,0.25H100l0,0h1h0.25l0.5-0.25l0,0L102,65l0,0l0.25-0.75
	l-0.25-1l-0.5-1.75l0,0v-1.25l0,0V59.5v-1L102,57l0,0l1.25,0.25l1,0.5l0,0l2,0.75l0,0l0.5,0.25l0,0l1.5,0.25l0,0l0.75,0.25l0,0h0.75
	h1l0,0L112,58.5l0,0l-0.25-0.75l-0.5-0.75l0,0v-0.25l0.25-0.25l0,0v-0.75H111l-0.25-0.25h-0.5l0,0l-0.75-1l0,0L108,54l-1.5-0.5l0,0
	h-1h-1l0,0l-1.25-0.75l0,0v-0.5h0.25l0.75-0.5l0,0l0.5-0.5l0,0h0.5h0.5l0,0l0.75-0.5l0,0l0.75-0.75l1-0.75l0,0l1-0.5l0.5-0.75l0,0
	l0.25-0.25l0.25-0.25v-0.25l0,0L110,47l-0.25-0.25l0,0l-0.5-0.5l0,0l-0.5-0.25H108l0,0l-1-0.25l0,0h-1L105.25,46l0,0h-0.5l-0.5-0.25
	l0,0h-0.75l0,0h-1l-1-0.25l0,0V45l0.25-0.75l0.5-1l0,0V42.5l0,0l0.25-1.75l0,0l0.25-1.25l-0.25-1l0,0V38l-0.5-0.5l-0.25-0.25h-0.5
	l0,0l-0.5,0.5l0,0l-0.5,0.25l0,0l-1,0.75l-1,0.75l-1.75,2l0,0l-0.5,1L95.5,43L95,43.25l0,0h-0.25H94h-0.5l-0.25,0.25l0,0h-0.5
	l-0.25-0.25l0,0l0.25-0.75L93,42l0.75-1l0,0L94,40.25l0.25-0.75l0,0L95,38l0,0l0.5-0.5l0,0V37v-0.5v-1l0,0v-0.25l0,0v-2.5l0,0
	l0.25-0.25v-0.25l0,0L95.5,31.5l0,0V30l0,0L95,29.25l-0.5-0.75l-1.25-1l0,0l-0.5-0.25l0,0L92,26.75l0,0l-0.75-0.25l0,0V26L91,25.5
	l0,0l-0.25-0.75L90.25,24l0,0v-1l0,0v-0.75l0,0l-0.5-1l0,0l-0.25-1.5l0,0V19l0,0l-0.75-1.5l0,0l-0.75-1l0,0l-0.25-1l0,0l-1-1.25
	l-1-1.25l0,0l-0.25-0.75l0,0L84.75,11l0,0l-0.25-0.5l0,0l-1-1.25L82.25,8l0,0l-0.5-0.75l-0.5-0.5l0,0l-0.75-0.5l0,0L80,5.5
	l-0.75-0.75l0,0l-1-0.75l0,0l-0.5-0.75l0,0L77,3l-0.75-0.5l0,0H76l0,0L75.25,2l0,0h-1l0,0L73.5,1.75l-1-0.25l-2-0.25l0,0h-1l0,0
	L69,1l0,0h-1.25l0,0l-0.5-0.25l0,0H62.5l0,0H62h-0.5l0,0l-2-0.5l0,0h-0.75h-1l0,0h-1.5l0,0L55.75,0H55h-1.75l0,0h-5.5l0,0L47.5,0.25
	l0,0l0.25,0.25l0.5,0.25l0,0L48.5,1.5l0,0L49.25,2l0.5,0.5l0,0l0.5,0.5l0,0v0.25l0,0L51,3.75l0.5,0.5l0,0l0,0l0,0H51L50.75,4l0,0
	l-1-0.5l0,0h-0.5l0,0l-0.5-0.25H48l0,0h-1l0,0L45.5,3h-1.25l0,0H43.5H43l-0.5,0.25L42,3.75l0,0V4l0,0l0.5,0.5L42.75,5l0,0L43,5.5
	l0,0l1.25,1l1.5,1l0,0l0.75,0.25l1,0.5l0,0l0.5,1l0.25,0.5v0.5l0,0v0.25l0,0l-1.75,0.25h-1l-0.75-0.25l0,0L43,10h-1h-0.75l0,0H40.5
	H40l0,0h-0.5H39l-0.5,0.25l0,0L38.25,11l0,0l-0.5,0.75l-0.5,0.5l0,0L37.5,13l0.5,0.25L39.25,14l0,0l1,0.5l0,0L40.5,15l0,0l0.5,0.25
	l0,0l0.25,0.5l0,0l1.25,0.75l0,0l0.5,0.75l0.5,0.5L43.75,18l0,0v0.75l0,0h-1l0,0l-1.5,0.5L40,20l0,0l-1.25,0.5l0,0l-0.25,0.25l0,0
	h-0.25l0,0V21l0,0h-0.5l0,0L37,21.75l0,0h-0.75l-0.75,0.5l0,0l-1,0.75l-1.25,1l0,0l0.25,0.5l0,0l0.25,0.25h0.5L35.5,25l0,0l0.5,0.5
	l0,0l0.75,0.25l0,0L40,26l0,0l1,0.5l1.25,0.25l0,0L42.5,27l0,0h0.25l0,0l0.5,0.5l0,0v0.75V29l0,0l-0.5,0.75L42,30l-1.25,1l0,0
	l-0.5,0.5L40,32.25l0,0L39,33l0,0v0.5l0,0l-1,1.25l0,0L37.5,35l0,0l-1,1l-0.75,0.75l0,0v0.5l0.25,0.5l0.25,0.5l0,0l0.5,0.25l0,0
	l0.5,0.25l0,0h0.5H38l0,0h0.75l0,0h0.75l0,0H41l0,0l0.75-0.25l0,0h0.75L43,39l0,0l-0.5,1.25l0,0l-0.5,0.5l0,0l-0.25,0.75l0,0
	L41,42.75l0,0l-0.25,1l0,0l-0.5,0.75L40,45.25l0,0l0.75,0.5l0,0l0.5,0.5l0,0L42,46.5l0,0l0.25,0.25l0,0L41.5,48l-0.75,1l0,0
	l-0.25,0.5l0,0L40,50l0,0l-0.25,0.5l-0.25,0.75l0,0l-0.5,1l-0.5,1l0,0l0.25,1.5l0,0l0.25,1l0,0l3.5,0.75l0,0h3.25l0,0l1,0.25
	l1.25,0.5l0,0v0.5l-0.25,0.5l0,0L47.5,58.5l0,0l-1,1.25l0,0L46,60l0,0l-1.25,0.75l0,0L44.5,61l0,0l-0.75,0.5l0,0l-0.25,0.25l0,0
	l-1,1l0,0L42.25,63l0,0l-1.5,0.75l0,0l-0.75,1l-1,0.75l0,0l0.25,0.25l0.5,0.25h0.75l0.5,0.25l0,0l1.75,0.5l1.5,0.75l0,0l1.25,0.25
	L46,68l0.5,0.25l0,0v0.25l0,0l0,0l0,0l-0.25,0.25L46,69l-1,0.25l-2,0.25l0,0l-0.75,0.25H41.5l0,0l-1-0.25h-0.75l-0.5,0.25l0,0H39
	L38.75,70l-0.25,0.5l0,0l0.25,0.5v0.25l0.5,0.5l0,0l0.25,0.75v0.75l0,0L40,74l0.5,0.25l0,0l1.75,2.25l0,0l0.5,0.5l0.5,0.25l0,0
	L44,78l0.75,0.75l0,0h0.5l0,0V79l0,0L46,79.25l0.5,0.25l0,0l0.5,0.75l0,0l0.25,0.25l0,0L48,81l0,0l0.25,0.25h0.5l0,0l0.5,0.25l0,0
	v0.25l0,0L49,82.25h-0.5h-1l0,0L47,82.5l0,0l-0.25,0.25l0,0l-0.25,0.5v0.25l0,0l-0.25,0.25H46l-0.75-0.25H44.5h-0.75l0,0l-0.5,0.5
	l0,0l-0.5,0.25l0,0l-1,0.25l0,0L40,85.25l0,0l-1,0.25l0,0l-1,0.75l0,0l-1,0.25l0,0L35.75,87l0,0v0.25l0,0l0.25,0.5L36.25,88l1,0.25
	l0,0l0.75,0.5l0,0l1,1l0,0l0.75,0.75l0,0L40.5,91l1,0.25l0,0l0.25,0.25l0,0L42.5,92l0,0l0.25,0.25l0,0l1,1l0,0l0.5,0.25l0,0L45,94
	l0,0h0.5l0,0l0.25,0.25v0.5V96l0,0l-0.5,1.25l0,0v1.25l0,0L45,99.25v1.25l0,0l0.25,1.25v0.75v0.75l0,0L45,103.5l0,0l-0.25,1.5l0,0
	l-0.5,1l0,0v1l0,0L44,107.75l0,0v0.75v0.5l0,0l-0.25,0.5v0.25V110l0,0v0.5v0.75l0,0l-0.25,1l0,0l-0.5,1l0,0v1l0,0l-0.25,0.5
	l-0.25,0.5l0,0l-0.25,0.5v0.5l0,0l-0.5,0.25L41.5,117l0,0v1l0,0l-0.25,0.5l0,0v1l0,0l-0.5,1.75l0,0L40.5,123l0,0l0.25,0.5v0.5l0,0
	L40,127.75l-0.5,1.5l-1,1.25l0,0l-0.75,0.75l-1,0.5l0,0h-1l0,0l-1,0.25h-1l0,0l-0.5-0.25l-0.5-0.25l0,0L30.5,131l0,0l-0.5-0.25
	l-0.5-0.5l0,0L29,130l0,0l-1-0.5l0,0l-0.5-0.25l0,0l-0.5-0.5l0,0h-0.75l0,0v-0.25l0,0l-1-0.5l0,0l-0.5-0.5l0,0L24,127l0,0
	l-1.25-0.75l0,0l-0.75-0.5l0,0l-0.25-0.25l0,0l-1-0.75l0,0l-0.25-0.25l0,0l-1.5-1l0,0l-0.25-0.5l0,0l-0.5-0.5l-0.5-0.25l0,0l-0.75-1
	l0,0l-0.75-0.5l-0.75-0.25l0,0l-0.75-1.5l0,0v-0.75l0,0l-0.5-1l0,0v-0.5l0,0L14,116.5l0,0v-0.75l0,0l-1.25-2.5l0,0l-0.25-0.75l0,0
	l0,0l0,0l0,0l0,0l-0.25-0.5l0,0v-0.5l0,0l-0.75-0.75l-0.75-0.5l0,0L9,110.5l-1,0.25l-0.75-0.25l0,0l-1-0.75l0,0l-0.25-1l0,0
	l-0.75-1.25l-1.25-1l0,0l-0.5-0.25H2.75L2,106.5l-0.5,0.25l0,0l-1,0.75l0,0L0,108.25l0,0v0.5L0.25,109l0,0v1l0.25,1l0,0l0.75,0.5
	l0,0L1.5,112l0.25,1l0,0l1,1.5l0,0L3,114.75l0,0l1.5,1.5l0,0L5,116.5l0,0h0.25l0,0l1,0.25l0,0l0.75,0.5l0,0h0.75l0,0L9,117.5l0,0
	l0.75,2.25l0,0l0.25,1l0.25,1l0,0l1,1.75l0,0l0.25,0.75l0,0l1.75,2.25l1,1l1,1l0,0l0.5,0.5l0,0l0.75,0.25l0,0l1.75,1l0,0l1.25,0.5
	l0,0l0.5,0.5l0,0l0.5,0.25l0,0l0,0l0,0l0.5,0.25l0,0V132l0,0l0.75,0.25l0,0L22.5,133l0,0H23l0,0l0.75,0.5l0,0l0.25,0.25l0,0l0.5,0.5
	l0,0h1l0,0l1,0.75l0,0h0.75l0,0l0.25,0.5l0,0l0.5,0.25l0,0l0.5,0.75l0,0l0.5,0.25l0.5,0.25l0,0v0.25l0,0h0.25l0,0L30,138l0,0
	l0.25,0.5l0.25,0.5l0,0v1l0,0v1.25l-0.25,1l-1,2l0,0v1l0,0l-0.5,2.25l0,0v1.5l0,0l-0.25,0.75l0,0v2.5l0,0L27.75,154l0,0l-0.5,0.75
	l0,0l-0.5,1l0,0v0.75v1l0,0l-0.25,1v1l0,0l-0.25,2.25l0,0v0.75l0,0L26,163l0,0v0.5v0.5l0.25,0.75v0.5l0,0l-0.5,1l-0.5,1l0,0
	l-0.25,2.5l0,0L24.75,171l-0.25,1l0,0v1l0.25,0.75l0,0L24.5,174l0,0v0.5l0,0v2l0,0v2l0,0l-0.25,2.25l0,0L24,181.5l0,0l-0.5,1.75l0,0
	V184v0.75l0,0v0.75v0.75l0,0l-0.25,1l0,0L23.5,188v0.75l0,0h-0.25l0,0v1l0,0V191l0,0l-0.5,1l0,0l0.25,1.25l0,0l-0.25,2.25v1l-0.5,1
	l0,0v2l0,0v0.75l0,0v1l0,0L21.5,203l0,0l-0.5,1.5l0,0v2l0,0v2l0.5,1.75l0,0v1.25l0,0v1v1l0,0l-0.25,2v2l0,0l1,6.25l0,0v0.5v0.25l0,0
	v1.5l0,0L22,227l0,0l0.25,1.5v1.5l0,0v1.25l0,0v1.5v1.5l0,0v1.25l-0.25,1l0,0v0.5v0.5l0.25,0.75l0,0V239L22,239.5l0,0l-0.25,1.75
	l0,0l-0.25,0.5l-0.25,0.5l0,0v2l0,0L21,245.5l0,0v0.5v0.25l0.25,0.5V247l0,0l-0.5,1.25l-0.25,1.5l0,0v1l0,0v2l0,0V254v1l0,0
	l-0.25,1.5l0,0v1.25V259l0,0l0.25,0.5v0.5v0.25l0,0l-0.75,1.25l0,0L18,264.25l0,0L17.5,265l-0.25,0.5l0.25,0.5l0,0l0.25,0.25
	l0.25,0.5l0.5,0.5l0,0L19,267l0,0h0.75l0,0l0.75-0.25l0,0h1l0,0l0.25-0.25h0.5l0,0l0.5,0.25L23,267l0.25,0.5l0.5,0.25l0,0h0.5h0.5
	l0,0l0.5-0.5l0.25-0.75l0,0l0,0l0,0l0.75,0.75l0.5,0.25h0.75l0,0L28,267l0.25-0.25l0.5-0.5l0.5-0.25l0,0H30l0.5,0.25l0.75,0.5l0,0
	H32l0,0v-0.25l0,0h1.25l0,0L34,266l0,0l0.25-0.75L34,265l-0.5-1l0,0l-0.25-0.5l0,0l-0.5-0.75l-0.75-0.5l-1.5-0.75l0,0V261v-0.5
	v-1.25l0,0v-2l0.25-2l0,0L31,252.5l0,0l-0.25-2.5l0.25-1.5v-1l0,0l0.25-1.75v-1V244l0,0l0.25-1.25l0,0v-1.25v-1l0,0l0.25-2l0,0
	L32,237l0,0l0.25-1.5L32,234l0,0v-1l0.25-0.5v-0.25l0,0v-0.5L32,231.5l0,0l0.25-0.5l0,0l0.25-1.5l0,0l0.25-1l0,0v-1v-1.25l0,0
	l0.25-0.5l0,0l0.5-1.5l0,0v-0.75l-0.25-0.5l0,0l0.25-2.5l0,0l-0.5-0.75l0,0v-4.5l0,0V212l0,0l-0.25-1.5v-1.75l0,0L33,206.5v-2l0,0
	v-2.25l0,0v-0.5L32.75,201l0,0l0.25-3.25v-1.5l-0.25-1.5l0,0v-2.5l0,0l-0.25-1v-1.5l0.25-1.25l0.25-1l0,0v-0.75l0,0l0.25-0.75
	l0.25-0.75l0,0h0.25l0,0l0.25-0.5l0,0l0.25-0.25l0,0l0.25-0.5l0,0l0.5-1l0.5-0.5l0.5-0.25l0,0h1.25h1.25l1,0.5l0.75,0.5l0,0H41
	l0.5,0.25l0,0L42,184l0.25,0.75l0,0l0.5,0.25l0,0l0.25,0.5l0,0h0.25l0,0l0.25,0.75l0,0l1,0.75l0,0l0.25,0.5l0,0l0.75,0.5l0,0
	l0.75,0.75l0,0V190l0.5,1l1,1.75l0,0L48,193.5l0,0l0.75,1.5l0,0l0.25,0.75l0,0l0.5,1.5l0.5,1.5l0,0l0.25,1.5l0,0h0.25l0,0v1l0,0
	L51,203l0,0v0.75l0,0l0.25,1.25l0,0l0.5,1.25l0,0L52,207v0.75l0,0l0.25,1.75l0,0v1.25v1l0,0l-0.25,0.5V213l0,0l0.75,2.25L53,216.5
	l0.25,1.25l0,0V219l0,0v2.5l0,0L53,222.75l0,0l0.25,1.5l0,0v1.25l0,0v0.25V226l0,0v0.75v0.75l0,0l-0.5,1.25l0,0v1l0,0V231l0,0v0.5
	l0,0v1.5l0,0l0.25,0.5v1l0,0l-0.75,0.5l0,0l0.5,0.75V236v0.5l0,0l-0.25,1.25l-0.5,1l0,0l-0.25,1.75l0,0l-0.25,0.75v1l0,0l-0.25,1.25
	l0,0L51,244.75l0,0v3l0,0V249l0,0l-0.75,1.5l-0.75,1.75l0,0h-0.25l0,0L49,253l0,0l-0.25,1l0,0l-0.5,1l0,0L48,255.75l0,0V256l0,0
	l-0.25,1l-0.25,1.25l0,0v0.5l0,0l-1,1.75l0,0l-0.25,0.5L46,261.75l0,0l0,0l0,0v0.75l0,0l-0.75,0.25l0,0v0.5l-0.25,0.5v1l0,0
	l-0.5,0.5l0,0V266v0.75l0.25,0.5l0.5,0.25l0,0l0.5,0.25l0,0l1,0.5l0,0l0.75,0.25l1-0.25l0,0l0,0l0,0l0.25-0.25l0,0l0.25-0.25l0,0
	l0.5-0.25l0.75-0.25l0,0L51,266.5l1.25-0.5l0,0h0.5H53l0,0l0.75,0.75l0,0v0.5l0,0l0.5,1l0,0l0.25,0.25H55l0.75,0.25l0,0l0.5,0.5h0.5
	h0.5l0,0l1-0.25l0.5-0.25h0.5l0,0l0.5,0.75l0.5,0.5l0.75,0.25l0.75,0.25h0.75l1-0.25l0.75-0.25l0.5-0.5l0,0l0.5,0.25L65.5,270
	l0.25,0.25L66,270.5l0,0l0.5,0.25H67l1-0.25l0,0l0.75-0.25l0,0l1.25-0.5l0,0l0.5-0.25l0,0L71,269l0,0l0.75-0.75l0,0L72,267.5v-0.75
	l0,0v-2l0,0L71.5,264l0,0l-0.25-0.5l0,0l-0.75-0.75l0,0v-0.5l0,0l-0.75-0.5L69,261.5l0,0l-0.5-0.5l-0.25-0.5l0,0l-0.5-0.25l0,0
	l-0.5-0.5l0,0l-0.75-0.25l0,0L66,259l0,0l-0.5-0.5l-0.5-0.25l0,0l-0.5-0.75l0,0l-2.5-2l0,0l-0.75-1l0,0l-1-0.75l-1-0.75l0,0
	l-0.5-0.75L58.5,251l-0.25-1.25l0.25-1.25l0,0v-1l0,0l0.5-1.25l0,0l0.25-1.25l0,0v-0.5V244l0,0h0.25l0,0l0.25-0.75l0.5-0.75l0,0
	l0.25-0.5l0.25-0.5l0,0v-1v-1l0,0l0.25-2.75l0,0V236l0,0l0.25-0.25l0,0l0.25-0.5l0,0l-0.25-0.5l0,0v-1v-1l0,0L61.5,231l0,0v-0.75
	l0,0l0.5-0.75l0,0v-0.75l0,0l0.5-0.25l0,0l0.25-0.25v-0.5V227l0,0l0.25-1.25v-1.25l0,0v-1.75l-0.25-1.5l0,0v-0.5l0,0l0,0l0,0V220
	l0,0v-0.75v-0.75l0,0L62.5,217v-0.5v-0.75l0,0v-1v-1.25l0,0l-0.25-1.25l0.25-1l0,0V210l0,0v-1.5l0,0l0.25-1.5v-0.75v-0.75l0,0
	l0.25-1.75V202l0,0v-1v-0.75l0.25-1L63,198.5l0,0l-0.5-2.25l0,0L62.25,195l0,0L62,192.25v-1.75V189l0,0v-1.25v-1.25l0,0l-0.25-0.25
	V186l0,0l0.5-1.5l0,0v-0.25V184L62,183.75v-0.25l0,0l0.75-1.75l0.5-1.5l0,0l0.25-0.75l-0.25-1.25l-0.25-1.5l0,0V173l0,0v-1l0,0
	l-0.5-0.75l0,0l0.25-1.5l0,0l-0.5-1.25l-0.5-1l0,0v-1l0.5-0.5l0,0v-0.5l0,0l0.5-1.5l0,0l0.25-0.75v-1l0,0L62.75,162h-0.5l0,0v-1
	v-1.25l0,0V158l0,0v-1.75l0,0l-0.25-1.5l0,0l0.5-1v-1.25l0,0l-0.25-0.75l0.25-0.5l0,0v-1l0,0l0.25-1.25l0,0v-0.75l0,0l0.25-1l0,0
	v-0.5l-0.25-0.5v-0.5v-0.25l0,0l0.25-1v-1.25l0,0v-0.75l0,0l0.5-0.75l0,0V141l0,0l0.25-1l0,0v-1.5l0,0L63.5,138v-0.5l0,0l0.25-0.75
	l0,0L64,135l0,0h0.25l0,0v-1l0,0v-1l0,0L64,132.5V132l0,0l0.25-0.5V131l0,0L64,130.75v-0.5l0,0l0.25-0.5L64.5,129l0,0v-0.5V128
	l-0.25-0.5V127l0,0l0.25-0.5l0.25-0.25v-0.5l0,0l-0.25-0.25l-0.25-0.75l0,0l0.25-0.25l0,0V124l0,0l0.25-0.5l0,0l0.25-1v-0.75l0,0
	l0.25-0.5l0,0v-0.5l-0.25-0.5l0,0l0.25-0.5v-0.5l0,0l-0.25-0.5v-0.5l0,0l0.5-0.75l0,0v-0.75l0,0l0.5-0.5l0,0v-0.5l0.25-0.75l0,0
	L66,114.25l0,0v-1v-0.5V112l0,0l-0.25-0.5l-0.25-0.75l0,0l0.25-0.5l0.5-0.5l0.5-0.25L67,109l0,0v-1v-0.75l0,0l0.5-1.5l0,0v-0.5
	l0.25-0.5l0,0l0.5-1l0,0V103l0,0l0.25-0.5l0,0l0.25-1l0,0l0.5-1.75l0.5-2l0,0v-1l-0.25-0.5l0,0v-2l0,0l1.25-3.5l0,0v-1l0,0l0,0l0,0
	L71,88.5l0,0l0.75-1.25l0,0v-0.5V86l-0.5-0.75l0,0V85l0.25-0.5l0.5-0.75l0,0h1.5l0,0h1l0,0l1,0.5l0,0l1.25,0.5l1,0.25l0,0l0.75,0.25
	h1H81l0,0L82.25,86l0,0H83l0,0l0.75,0.25l0,0l1.75,0.25l0,0L86,87l0,0l0.75,0.25l0,0l0.5,0.25l0,0v1v0.75l0,0v1l0,0L87,90.75l0,0
	v0.75l0,0l-0.5,0.75l0,0l-0.25,1V94l0,0v2l0,0l0.25,2l0,0l0.25,0.75l0,0v1l0,0L87,100.5l0,0v0.75l0,0l0.5,0.75l0,0l0.25,0.75l0,0
	l0.25,1l0,0l0.5,0.75l0,0l0.25,0.5l0,0l1,1l1,1l0,0l0.75,0.25l0,0l0.75,0.5h0.25H93l0,0v-0.5v-0.75l0,0l0.25-0.75l0,0V105v-0.75
	l-0.5-1.5l0,0V101l-0.25-0.75l-0.25-0.5l0,0l0.25-0.5L92.75,99l0,0l0.5-1l0,0l0.5-0.5l0,0L95,96l1.25-1.25l0,0l0.25-0.25H97h0.75
	l0,0l0.5-0.25H99l0,0l0.25,0.25l0,0H100l0,0l0.75,0.5l0,0h0.75h0.75l0,0l0.5,0.25l0,0l0.5,0.25h0.5l0,0l0.25-0.25l0,0l0.5-1l0,0V93
	l-0.25-1l-1-1.25l0,0l-0.25-1l0,0l-0.75-0.5l0,0l-1.5-1l0,0l-0.5-0.25l0,0L100,87.5l0,0l-0.75-0.75l0,0L98.75,86l0,0H98.5l0,0v-0.5
	L98.25,85l0,0L98,84.5V84l0,0l0.25-0.25V83.5l0.5-0.25l0,0l0.75-0.75l0,0h0.75l0,0l0.5-0.5l0,0l0.75-0.25l0,0l2-1.5l0,0l0.25-0.25
	l0.5-0.25l0,0l0.25-0.25l0.25-0.5l0,0l0.5-0.25l0,0l0.25-0.5l0,0L106,78l0,0l0.75-0.5l0,0l1-0.25l0,0l0.5-0.5l0.5-0.5l0,0l0.5-0.25
	l0,0l1-1l0.75-1l0,0l0.25-0.5V73v-0.25l0,0l-0.5-0.25l-0.25-0.25H109.25L109.25,72.25L109.25,72.25z M69.5,45.25L69.5,45.25
	l-0.25-0.75l0,0v-0.75l0,0L69,42.25l0,0l-0.25-1V40l-0.25-2.75l0,0V36v-0.75V34.5l0,0l0.5-0.25l0,0h0.25l0,0h2.25l1,0.25l1,0.25l0,0
	l0.25,0.5l0.25,0.5l0,0l0.75,1.75l0,0l0.75,0.75l0,0l0.25,0.5l0.25,0.5l0,0l0.75,0.5l0,0v0.5l0,0l0.75,0.5l0,0l0.25,0.75l0,0l1,1
	l1,0.75l0,0l1.5,1.25l0,0l1.25,0.75l0,0l0.75,0.25l0,0l0.5,0.5l0,0h0.5l0,0l0.5,0.25l0,0H85h0.5L86.25,46l0,0l0.5-0.25L87,46
	l0.75,0.25l0,0h0.5H89l0,0l0.25,0.25l0,0l-0.5,0.75l-0.25,1l0,0V49v1v0.75l-0.25,0.75l0,0l-0.5,0.5l0,0l-0.5,0.5l0,0L85,54l0,0
	l-0.5,0.5l0,0L83.75,55l0,0L83,56l-0.5,1.25l0,0l-0.25,0.5L82,58.25l0,0l-1.25,1L79.5,60l0,0l-0.75,0.25l0,0l-0.5,0.5l0,0l-1.75,1
	l0,0l-1.25,1l-1,0.75l0,0L73.5,64l-0.75,0.25l0,0L72,65l-0.75,0.25L70.5,65l0,0l-0.25-0.5L70,64.25l0,0v-0.5l0.25-0.25L70.5,63l0,0
	l0.25-2.25l0,0L70.25,60l0,0v-1.25l0,0L70,58.25l0,0V57l0,0l-0.25-0.75V55.5v-0.25l0,0V54.5v-0.75l0,0L70,53l0,0v-1l0,0l0.25-1.5v-1
	v-0.75l0,0L70,48l0,0v-0.75V46.5l0,0L69.5,46l0,0V45.25L69.5,45.25L69.5,45.25z"/>
<polygon fill-rule="evenodd" clip-rule="evenodd" fill="#FDF162" points="57.25,1.25 57.25,1.25 57.5,1.25 57.5,1.25 58,1 58,1 
	58.75,1.75 58.75,1.75 59.75,1.75 59.75,1.75 60.25,2 60.25,2 60,2.5 59.5,2.75 58.5,3.5 58.5,3.5 57.75,4 57.75,4 57.5,4.25 
	57.5,4.25 56.75,4.5 56.75,4.5 56.75,4.5 56.75,4.5 56.5,4.5 56,4.5 55.25,4 55.25,4 54.5,3.75 53.5,3.5 53.5,3.5 52.75,3 52.75,3 
	52.25,3 52.25,3 52,2.5 51.5,2.25 51.5,2.25 51.5,2 51.5,2 51.75,1.5 52.25,1 52.25,1 53,1 53.75,1 53.75,1 55.5,1 57.25,1.25 
	57.25,1.25 "/>
<polygon fill-rule="evenodd" clip-rule="evenodd" fill="#D65583" points="82.25,23.5 82.25,23.5 82,24 82,24.5 82,24.5 81.75,25 
	81.75,25 81,25.25 80,25.25 80,25.25 78.75,24.25 78.75,24.25 78.75,23.75 78.75,23.75 78.25,23.25 78.25,23.25 78,22.5 78,22.5 
	77.5,22 77.5,22 77.25,21.25 77,20.75 77,20.75 76.75,20.25 76.25,20 76.25,20 76,19.75 75.75,19.5 75.75,19.5 75.25,19.25 
	75.25,19.25 74.75,18.75 74,18.5 74,18.5 73,18.25 71.75,18 71.75,18 70.5,18 70.5,18 68.75,18 68.75,18 66.5,18 66.5,18 
	65.25,18.5 64.25,19 62.75,20.5 62.75,20.5 62.25,21.25 62.25,21.25 61.75,21.75 61.75,21.75 61.5,22.25 61.5,22.25 60.75,23.25 
	60.25,24.5 59.75,26 59.75,27.5 59.75,27.5 60,27.75 60,27.75 60.75,27.5 61,27.25 61.5,26 61.5,26 61.5,25.75 61.5,25.75 62,24.5 
	62,24.5 63.25,22.5 63.25,22.5 64.25,21.75 64.25,21.75 64.5,21 64.5,21 65,20.5 66,20.25 66,20.25 67,20.25 67,20.25 67.75,20 
	68.75,20 70.75,20.25 70.75,20.25 72.25,20.5 72.25,20.5 73,20.5 73,20.5 73.5,20.75 74,21.25 74,21.25 74.5,21.75 74.5,21.75 
	75.75,22.5 75.75,22.5 76.25,23 76.5,23.5 76.5,23.5 77.25,24.25 77.25,24.25 77,24.75 77,24.75 76,24.5 76,24.5 76,24.5 76,24.5 
	74.75,24.75 73.5,24.75 73.5,24.75 73,24.75 72.5,24.75 72.5,24.75 70.5,25 70.5,25 70,24.75 69.25,24.25 68.25,23 68.25,23 
	67.75,23.25 67.75,23.75 67.75,23.75 68.25,24.5 68.25,24.5 69,24.75 69.5,25 69.5,25 69.5,25.25 69.5,25.25 71.25,25.75 
	71.25,25.75 71.5,25.75 72,25.75 72,25.75 73.5,26 73.5,26 74.75,26.25 74.75,26.25 76.25,26.5 76.25,26.5 76.75,26.5 76.75,26.5 
	78,26.5 78,26.5 79.25,27.25 79.25,27.25 80,27.25 81,27.25 81.75,27.25 82.75,27.25 82.75,27.25 84,27.75 84,27.75 84.75,27.75 
	85.25,27.5 85.25,27.5 86.75,27.5 86.75,27.5 88,27.5 89,27.5 89,27.5 90.25,27.75 90.25,27.75 91.25,28 91.25,28 92.25,29.25 
	92.25,29.25 93,29.5 93.5,30 93.5,30 93.5,30.5 93.5,31 93.5,31 93.75,31.5 94,32 93.75,32.25 93.75,32.25 93.5,32.5 93.25,32.75 
	92.5,33 92.5,33 91.75,33.25 90.75,33.25 89.25,32.75 89.25,32.75 86.75,32.75 86.75,32.75 85.5,33 84.5,33 84.5,33 83.5,33 
	83.5,33 82.75,33.5 82.75,33.5 81.75,33.5 80.75,33.5 80.75,33.5 79.75,33.5 79.75,33.5 78.25,33.25 78.25,33.25 76.75,33.25 
	76.75,33.25 75.25,33.25 75.25,33.25 74.25,33.25 74.25,33.25 74,33 74,33 74,33 74,33 72,33 72,33 70,32.75 68.5,32.75 
	67.75,32.75 67.75,32.75 67,33.25 67,33.25 67.25,33.75 67.25,34.25 67.25,34.25 67,35 66.75,35.5 66.75,35.5 66.75,36.5 
	66.75,36.5 67,39 67.25,41 67.25,41 67.25,41.75 67.25,41.75 67.5,42.5 67.5,42.5 67.5,43.25 67.75,44 67.75,44 67.5,45.25 
	67.5,45.25 65.5,45.5 63.25,45.5 63.25,45.5 61.5,45.5 61.5,45.5 60.25,45.25 59,45.5 59,45.5 57.5,45.5 57.5,45.5 56,46 56,46 
	55.75,46 55.75,46 54.5,46 53.25,46.25 53.25,46.25 52.25,46.25 52.25,46.25 50.75,46.5 49.75,46.75 49.25,46.5 49.25,46.5 
	49,46.25 48.75,46 48.75,45 48.75,45 48.5,44.25 48.25,43.25 48.25,43.25 48.25,42 48.25,42 48,41 47.75,40 47.75,40 47.5,38.75 
	47.5,38.75 46.75,36.5 46.75,36.5 46.75,35.5 46.75,35.5 46.25,34.5 46.25,34.5 46.25,33.5 46.25,33.5 46,32.5 45.75,31.5 
	45.75,31.5 45.5,30 45.5,30 45.25,29.25 44.75,28.5 44.75,28.5 45,27.75 45.25,27.25 45.75,26.25 45.75,26.25 45.75,25 45.75,25 
	46.25,23.25 46.25,23.25 46.25,22.75 46.25,22.75 47,21.5 47,21.5 47.25,20.75 47.25,20.75 47.5,20.75 47.5,20.75 47.5,20.25 
	47.75,19.75 47.75,19.75 48,19.5 48,19.5 48,19 48,19 48,19 48,19 48.25,18.5 48.25,17.75 48.25,17.75 48.75,16.5 48.75,16.5 49,16 
	49,16 49,15 49,15 49.25,14.5 49.25,14.5 49.5,13.25 49.75,12.75 50,12.25 50,12.25 50.5,11.75 50.5,11.75 51,11 51,11 51.25,10.75 
	51.75,10.5 51.75,10.5 52.25,9.75 52.75,9.25 52.75,9.25 53.75,9 53.75,9 54,8.5 54.5,8 54.5,8 55,7.5 55.5,7.25 55.5,7.25 56,6.25 
	56,6.25 56.75,6 56.75,6 57,5.5 57,5.5 57.5,5.25 58,5 58,5 58.25,4.75 58.25,4.75 58.75,4.25 58.75,4.25 59.25,4.25 59.25,4.25 
	59.25,4 59.25,4 59.75,3.75 59.75,3.75 59.75,3.75 59.75,3.75 60.75,3.5 60.75,3.5 62.75,2.75 62.75,2.75 63.75,2.75 63.75,2.75 
	64.5,2.25 64.5,2.25 68,2.5 68,2.5 68.25,2.5 68.25,2.5 69.25,2.5 69.25,2.5 72,2.75 73.25,3 74.25,3.25 74.25,3.25 75,3.5 75,3.5 
	75.75,4 76.5,4.5 76.5,4.5 76.75,4.75 76.75,4.75 77.25,5.5 77.25,5.5 77.75,6 78.5,6.75 78.5,6.75 78.5,6.75 78.5,6.75 79,7.25 
	79,7.25 79.75,8 79.75,8 80,8 80,8 80.75,9 80.75,9 81.25,9.5 81.25,9.5 82,10.5 82,10.5 83,11.25 83,11.25 84,12.5 84,12.5 
	84,13.25 84,13.25 85.5,14.75 85.5,14.75 85.75,15.75 86,16.75 86,16.75 86.25,16.75 86.25,16.75 86.5,17.25 86.5,17.25 86.5,17.25 
	86.5,17.25 86.75,18 86.75,18 87.5,19.25 87.5,19.25 87.5,20 87.5,20 88.25,21.75 88.25,21.75 88.25,22.5 88.25,22.5 89,23.5 
	89,23.5 89.25,24.5 89.25,25.75 89.25,25.75 89,26 88.5,26 87.5,26 87.5,26 87.25,26.25 87,26.25 87,26.25 86.75,26 86.75,26 
	86.25,26 86,26.25 85.5,26.25 85.25,26 85.25,26 84.75,26 84.5,25.75 84.5,25.75 84.25,24.75 84,24 83,22.25 83,22.25 83,21.25 
	83,21.25 82.5,20.25 82.5,20.25 82.25,19.5 82.25,19.5 81.75,18.75 81.25,17.75 81.25,17.75 80.75,17.25 80.75,17.25 80.5,16.5 
	80.5,16.5 79.75,16 79,15.25 79,15.25 78.5,14.5 77.75,13.75 77.75,13.75 77.25,13.75 77.25,13.75 76.25,13 76.25,13 76.25,13 
	76.25,13 74.75,12 74.75,12 74,11.75 74,11.75 71.75,11 71.75,11 71,10.75 71,10.75 70.25,10.5 69.5,10.5 68,10.75 68,10.75 
	67.25,10.5 66.75,10.75 66.75,10.75 65.5,11.25 65.5,11.25 64.5,11.25 63.25,11.5 63.25,11.5 63,11.75 63,11.75 62,12.25 62,12.25 
	61,13.25 61,13.25 60.5,13.75 60,14 60,14 59.75,14.5 59.25,14.75 59.25,14.75 58.75,15.25 58.75,15.25 58.25,15.75 58.25,15.75 
	57.5,16.5 56.75,17.25 56.75,17.25 56.25,17.75 56.25,17.75 55.75,18.75 55.75,18.75 55.75,19.25 55.75,19.25 54.75,21.5 54,23.75 
	54,23.75 54,24.75 54,25.5 54,26 54,26 53.75,26.75 53.75,27.25 53.75,27.25 53.5,28.75 53.5,29.5 53.75,30.25 53.75,30.25 
	53.75,31 54,32 54,32 54,32.25 54,32.25 54.75,32.25 55.5,32.25 55.5,32.25 57.25,32.25 59,32 59,32 60.75,32 60.75,32 61.5,31.5 
	61.5,31.5 61.75,31.5 61.75,31.5 61.5,31.25 61,31 60,31 60,31 58.5,31.25 56.75,31.5 56.75,31.5 56,31.5 55.5,31.5 55.5,31.5 
	55,31.25 55,31 55,30.25 55,30.25 54.75,29 54.5,27.75 54.5,27.75 54.75,27.25 55,26.75 55,26.75 55,25.75 55,25.75 55.5,24 
	55.5,24 55.5,23.25 55.5,23.25 55.75,22 55.75,22 57.25,19 57.25,19 57.75,17.75 57.75,17.75 58,17.75 58,17.75 58.25,17 58.5,16.5 
	58.5,16.5 59.5,15.75 59.5,15.75 60.75,14.5 60.75,14.5 61.5,14 61.5,14 62.5,13.5 63.25,13 63.25,13 65,12.25 65,12.25 66.25,12 
	66.25,12 67.5,11.75 69,11.5 70.25,11.75 71.75,12 71.75,12 72.25,12 72.25,12 74,12.5 74,12.5 74,12.75 74,12.75 74.5,13 74.5,13 
	75,13.25 75,13.25 75.5,13.75 75.5,13.75 75.75,14 75.75,14 75.75,14 75.75,14 76.75,14.5 76.75,14.5 77.25,15 77.25,15 77.5,15 
	77.5,15 78.25,15.75 78.25,15.75 78.5,15.75 78.5,15.75 79.25,16.75 79.25,16.75 79.75,17.25 79.75,17.25 80,17.75 80,17.75 
	80.25,17.75 80.25,17.75 80.5,18.75 80.5,18.75 81,19.5 81,19.5 81.25,20.25 81.25,20.25 81.25,20.25 81.25,20.25 81.5,20.75 
	81.5,20.75 81.5,20.75 81.5,20.75 81.75,21.25 81.75,21.25 81.75,21.5 81.75,21.5 82,21.5 82,21.5 82.25,22.5 82.25,23 82.25,23.5 
	82.25,23.5 "/>
<polygon fill-rule="evenodd" clip-rule="evenodd" fill="#FDF162" points="47.75,5.25 47.75,5.25 48,5.25 48,5.25 49.25,5.5 
	50.5,5.75 50.5,5.75 51.5,6 51.5,6 52.25,6.25 52.25,6.25 52.75,6.25 52.75,6.25 53,6.75 53.25,7 53.25,7 53,7.75 52.25,8.5 
	50.75,10 50.75,10 50.25,10 50.25,10 50,9.5 49.75,9 49.75,9 49.25,8.5 49.25,8.5 48.75,7.5 48.75,7.5 48.5,7.25 48,7.25 48,7.25 
	47.75,6.75 47.75,6.75 46.5,6.25 46.5,6.25 46.5,6 46.5,6 45.75,5.75 45.75,5.75 45.25,5.5 45.25,5.5 45,5.25 45,5.25 45,4.75 
	45,4.75 45.25,4.75 45.25,4.75 46.5,4.75 47.75,5.25 47.75,5.25 "/>
<polygon fill-rule="evenodd" clip-rule="evenodd" fill="#FDF162" points="46.75,12 46.75,12 48.25,12.25 48.25,12.25 48.25,13 
	48,13.75 48,13.75 48,14.5 48,14.5 47.75,15.75 47.75,15.75 47.75,15.75 47.75,15.75 47.5,16.25 47.5,16.25 47.5,16.25 47.5,16.25 
	47.25,17 47.25,17 47,17.25 46.5,17.5 46.5,17.5 45.75,17.25 45.5,17 45.5,17 45.25,16.75 45.25,16.75 44.5,16 44.5,16 44,15.75 
	44,15.75 43.75,15.25 43.25,14.75 43.25,14.75 41,13.25 41,13.25 40,13 40,13 39.5,12.25 39.5,12.25 39.5,11.75 39.5,11.75 
	40.5,11.5 41,11.5 41.5,11.5 41.5,11.5 42,11.75 42,11.75 43.25,11.5 43.25,11.5 44.25,11.75 45.25,11.5 45.25,11.5 46,11.5 
	46.75,12 46.75,12 "/>
<polygon fill-rule="evenodd" clip-rule="evenodd" fill="#FDF162" points="45.5,19.25 45.5,19.25 46,19.5 46,19.5 46,20.25 
	45.75,20.75 45.25,21.75 45.25,21.75 45.25,22.25 45.25,23 45.25,23 45,23.75 44.5,24.5 44,25 43.5,25.25 43.5,25.25 43,25.5 
	42.25,25.5 42.25,25.5 41.5,25 40.75,24.5 40.75,24.5 38.5,24.5 38.5,24.5 37.5,24.25 37.5,24.25 36.75,24.25 36.75,24.25 36.25,24 
	36.25,24 36.25,23.5 36.25,23.5 38.25,22.25 38.25,22.25 39.25,22 39.25,22 39.25,21.75 39.25,21.75 39.5,21.75 39.5,21.75 
	39.75,21.5 39.75,21.5 40.75,21.25 40.75,21.25 40.75,21.25 40.75,21.25 41.25,21 41.25,21 41.25,20.75 41.25,20.75 42.25,20.5 
	42.25,20.5 43.75,20 45.25,19.25 45.25,19.25 45.5,19.25 45.5,19.25 "/>
<polygon fill-rule="evenodd" clip-rule="evenodd" fill="#090E11" points="66.75,26.25 66.75,26.25 67.25,26.25 67.25,26.25 
	67.5,27.25 67.75,28 67.5,28.5 67.5,28.5 66.75,29.25 66.75,29.25 66.25,29.25 66.25,29.25 65.75,28.5 65.25,27.75 65.25,27.75 
	65.5,27.5 65.5,27.5 66.25,26.75 66.75,26.25 66.75,26.25 "/>
<polygon fill-rule="evenodd" clip-rule="evenodd" fill="#FDF162" points="43.5,31.25 43.5,31.25 43.75,31.5 43.75,32 44,33 44,33 
	44.25,33.5 44.25,33.5 44.25,34.25 44.5,34.75 44.5,34.75 44.5,35.75 44.5,36.25 44.25,36.75 44.25,36.75 43.75,37 43.25,37 
	43.25,37 42.5,37.5 42.5,37.5 41.5,37.5 41.5,37.5 40.5,37.75 39.25,37.5 39.25,37.5 38,37.25 38,37.25 37.75,36.75 37.75,36.5 
	37.75,36.25 37.75,36.25 38,35.75 38.25,35.5 38.25,35.5 38.75,34.75 38.75,34.75 39.75,34 41,33.25 41,33.25 41.5,33 41.5,33 
	41.75,32.5 42,32 42,32 43,31.25 43,31.25 43.5,31.25 43.5,31.25 "/>
<polygon fill-rule="evenodd" clip-rule="evenodd" fill="#C72127" points="93.75,34.75 93.75,34.75 93.75,35 93.75,35 93.75,35.5 
	93.5,36.25 93.25,37.5 93.25,37.5 92.25,40 91.5,41.25 90.75,42.5 89.75,43.5 88.75,44.25 87.25,44.5 85.75,44.25 85.75,44.25 
	84,44.25 84,44.25 82.75,43.75 81.5,43 81.5,43 81,42.5 81,42.5 80,41.75 79.25,41 78,39.25 78,39.25 77.5,38.75 77.5,38.75 
	77,37.5 77,37.5 76.25,36.5 76.25,36.5 76,36.25 76,35.75 76,35.75 76,35.25 76,35.25 78,35 79,35 79.75,35.25 79.75,35.25 80,35.5 
	80.5,36 80.5,36 81.25,36.75 81.25,36.75 81.75,37.75 82.25,38.75 82.25,38.75 83.25,39.5 83.25,39.5 83.5,40 83.5,40 84,41 84,41 
	84.5,40.75 84.75,40.5 85,39.25 85,39.25 85.25,37.5 85.25,37.5 85.5,36.25 85.5,36.25 86,35.5 86,35.5 87,35.5 87,35.5 88,36.25 
	88,36.25 88.25,37 88.75,37.75 88.75,37.75 89.25,38.25 89.5,38.75 89.5,38.75 90,38.75 90,38.75 90.5,38 90.75,37.25 91.25,35.25 
	91.25,35.25 92,35 92,35 92.5,34.75 93.25,34.75 93.25,34.75 93.75,34.75 93.75,34.75 "/>
<polygon fill-rule="evenodd" clip-rule="evenodd" fill="#FFFFFF" points="90,36.5 90,36.5 89.75,36.75 89.75,36.75 89,36.5 89,36.5 
	88.75,36 88.5,35.75 88.5,35.75 88.5,35.25 88.5,35.25 89,35.25 89.5,35.25 89.5,35.25 90.25,35.5 90.25,35.5 90,36.5 90,36.5 "/>
<polygon fill-rule="evenodd" clip-rule="evenodd" fill="#FFFFFF" points="84.5,35.25 84.5,35.25 84.5,35.25 84.75,35.5 84.75,35.5 
	84.75,36.25 84.5,37.25 84,38.75 84,38.75 83.75,38.75 83.5,38.75 83.5,38.75 83,38.25 82.5,37.5 81.5,35.75 81.5,35.75 81.75,35.5 
	81.75,35.5 81.75,35.25 81.75,35.25 82,35.25 82,35.25 83.25,35.25 84.5,35.25 84.5,35.25 "/>
<polygon fill-rule="evenodd" clip-rule="evenodd" fill="#FDF162" points="45.25,38.75 45.25,38.75 45.75,39.5 45.75,39.5 46,41 
	46.25,42.75 46.25,42.75 46.25,43.5 46.25,44 46.5,44.25 46.5,44.25 46.25,45.5 46.25,45.5 45.75,45.75 45.25,45.5 44,45 44,45 
	43.5,45 43,45 42.5,45 42.25,45 42.25,45 42,44.5 42,44 42,43 42,43 42.5,41.5 42.5,41.5 43,41 43.5,40.75 43.5,40.75 44,39.75 
	44.25,39 44.25,39 44.75,38.75 44.75,38.75 45.25,38.75 45.25,38.75 "/>
<polygon fill-rule="evenodd" clip-rule="evenodd" fill="#409C46" points="100.75,39.5 100.75,39.5 101,39.75 101,39.75 101,40.5 
	101,41.25 101,41.25 100.5,41.75 100.5,41.75 100.5,42.5 100.5,42.5 100,43.75 100,43.75 99.75,44.5 99.75,44.5 99.5,45.25 
	98.75,45.75 98.75,45.75 98.25,45.75 98,45.5 97.5,45 97.5,45 96.5,44.75 96.5,44.75 96.5,44.25 96.5,44.25 96.75,44 97,43.5 
	97.75,43 97.75,43 98.25,42 98.75,41 98.75,41 99.25,40.75 99.25,40.75 99.5,40.25 100,39.75 100,39.75 100.25,39.75 100.25,39.5 
	100.25,39.5 100.75,39.5 100.75,39.5 "/>
<polygon fill-rule="evenodd" clip-rule="evenodd" fill="#D86699" points="94.5,45 94.5,45 95.5,45.75 95.5,45.75 95.5,46 95.5,46 
	96.5,46.75 96.5,46.75 98,47.25 99.75,47.25 99.75,47.25 100.5,48 100.5,48 101,49.25 101,49.25 101,50 101.25,51 101.25,51 
	101.5,51.5 101.5,52 101.5,52 101.25,53.25 101.25,53.25 101.25,54.5 101.25,55.5 101.25,55.5 100.5,57.25 100.5,57.25 100.25,58.5 
	100,60 100,60 100,60.25 100.25,60.75 100.5,61.5 100.5,61.5 100.5,62.5 100.5,63 100.5,63.25 100.5,63.25 100.75,64 101,64.5 
	101,64.5 100.75,64.75 100.75,65 100.75,65 100.25,65 100.25,65 100.25,65 100.25,65 99.75,64.75 99.75,64.75 99.25,64.75 
	98.75,64.5 98.75,64.5 98.75,64.5 98.75,64.5 98.5,64.25 98.5,64.25 97.5,63.5 96.75,62.75 96.75,62.75 96.5,61.75 96.5,61.75 
	96.5,60.75 96.5,60.25 96.5,59.75 96.5,59.75 95.5,58.5 95,58.25 94.5,58 94.5,58 94,58 93.5,58 93.5,58 92.5,58 92.5,58 
	91.75,58.5 91,59 91,59 89.75,60 88.25,61 88.25,61 87.25,62 86.5,62.25 86.25,62.25 85.75,62 85.75,62 85,60.5 85,60.5 85,59.75 
	85,59.75 84.25,58.5 84.25,57.75 84.5,57 84.5,57 85.5,55.75 86.75,54.5 86.75,54.5 87.5,54.25 87.5,54.25 88.5,53.25 89.5,52.5 
	89.5,52.5 90.25,51.25 90.25,51.25 90.25,50.25 90.5,49.25 90.5,49.25 90.5,48.75 90.75,48.5 90.75,48.5 91,47.5 91.5,46.75 
	91.5,46.75 92.5,46.25 92.5,46.25 93.25,45.5 93.25,45.5 94,45 94,45 94.5,45 94.5,45 "/>
<polygon fill-rule="evenodd" clip-rule="evenodd" fill="#C72127" points="66.5,46.75 66.5,46.75 67.25,47.25 67.25,47.25 
	67.25,47.75 67.25,48.5 67.25,49.75 67.25,49.75 67.5,50.25 67.25,51 67.25,51 67.25,51.25 67,51.5 66,51.75 64.25,52 64.25,52 
	63.75,52 63.75,52 62.5,52.25 62.5,52.25 61.25,52.75 61.25,52.75 60.5,52.75 60.5,52.75 59.5,52.75 58.75,53 58.75,53 58,53 58,53 
	57.5,53 57,53 57,53 56,52.75 55,52.75 55,52.75 53.25,53 53.25,53 52.5,52.5 52.5,52.5 51.5,53 51.5,53 51,53 50.75,52.75 50.5,52 
	50.5,52 50,51.75 50,51.75 50,50.75 50,50.75 49.5,49.5 49.5,49.5 49.25,48.75 49.25,48.5 49.25,48.25 49.25,48.25 49.5,47.75 
	49.5,47.75 51.75,48 51.75,48 52.75,47.5 52.75,47.5 53.75,47.5 54.25,47.5 54.75,47.5 54.75,47.5 55.5,47.5 56.5,47.25 56.5,47.25 
	58.25,47 60.25,47 60.25,47 61.75,47 61.75,47 64.25,47 64.25,47 65.25,47 66.25,46.75 66.25,46.75 66.5,46.75 66.5,46.75 "/>
<polygon fill-rule="evenodd" clip-rule="evenodd" fill="#FDF162" points="46.75,47 46.75,47 47,47.25 47.25,47.75 47.25,48.5 
	47.25,48.5 47.75,50 47.75,50 48,51.5 48,51.5 48.25,52.5 48.5,53.5 48.5,53.5 48.5,54.75 48.5,55.25 48.75,55.75 48.75,55.75 
	48.75,56 48.5,56.5 48.5,56.5 48,56.25 47.75,56 47.25,55.75 47.25,55.75 46.25,55.25 46.25,55.25 45.75,55.25 45.25,55.25 
	44.25,55.25 44.25,55.25 42.75,55 41.25,54.75 41.25,54.75 40.5,54.5 40,54.5 40,54.5 39.75,54.25 39.75,54.25 39.75,53.25 
	40.25,52.5 40.25,52.5 40.5,52 40.5,52 41,51 41,51 41,50.5 41,50.5 41.75,49.5 41.75,49.5 42,49 42,49 42.5,48.75 42.5,48.75 
	43.25,47.75 43.25,47.75 43.5,47 43.5,47 43.75,46.75 43.75,46.75 45.25,46.75 46.75,47 46.75,47 "/>
<polygon fill-rule="evenodd" clip-rule="evenodd" fill="#CB2628" points="107.75,47 107.75,47 108.25,47.25 108.25,47.25 108,47.75 
	107.75,48 107,48.5 107,48.5 105.25,49.75 104,50.5 102.75,50.75 102.75,50.75 102.5,50 102.25,49.5 102,48 102,48 102,47.5 102,47 
	102,47 102.75,47 103.25,47 104.75,47 104.75,47 105.25,46.75 105.25,46.75 105.25,46.75 105.25,46.75 107.75,47 107.75,47 "/>
<polygon fill-rule="evenodd" clip-rule="evenodd" fill="#DA6A98" points="51.5,55.25 51.5,55.25 52.25,55.5 52.5,55.5 53,55.5 
	53,55.5 54,55.25 54.75,55 54.75,55 55.5,55 56,55 56,55 57.5,55 59,54.75 59,54.75 60.75,54.5 60.75,54.5 62,54.5 63.25,54.25 
	63.25,54.25 64.25,54.25 64.25,54.25 65.25,54.25 66.5,54 66.5,54 66.5,54 66.5,54 66.75,54 66.75,54 67,54 67.5,54 67.5,54 
	67.75,54.5 68,55.25 68.25,56.5 68.25,56.5 68.75,58 68.75,58 68.75,58.75 68.75,58.75 68.75,60 68.75,60 69,61.25 69,62.75 
	68.5,65.25 68.5,65.25 68.5,66.75 68.5,66.75 68.5,67.25 68.5,67.25 68,68.75 68,69.5 68.25,70.5 68.25,70.5 68.25,71.75 
	68.25,71.75 68.5,72.25 68.5,72.25 68.5,72.75 68.5,73.5 68,74.5 68,74.5 68,75.25 68.25,75.5 68.25,75.5 68.5,77 68.5,78.5 
	68.5,78.5 67.75,79.75 67.75,79.75 67.5,80.75 67.5,81.5 67.5,81.5 67.5,82.25 67.5,82.25 67.25,83.5 67.25,83.5 67,84.25 67,84.25 
	66.75,87.75 66.75,87.75 66.75,88.75 66.5,89.75 66.5,89.75 66.25,91 66.25,91 66.25,91.75 66.25,91.75 66,92.75 66,94 66,94 
	65.5,94.75 65.5,94.75 65.5,97.25 65.5,97.25 65.25,97.75 65.25,98.5 65.25,99.75 65.25,99.75 65,102.5 65,105.5 65,105.5 65,106.5 
	65,107.75 65,107.75 64.75,109 64.75,109 64.75,110 64.75,110 64.25,111.25 64.25,111.25 64.25,113 64.25,113 64,114 63.75,115.25 
	63.75,115.25 63.75,115.75 63.75,115.75 63.5,117 63,118.25 63,118.25 63,118.5 63.25,118.75 63.25,119.25 63.25,119.25 63,120 
	63,121 62.75,121.75 62.25,122.25 62.25,122.25 62.25,122.5 62.25,122.75 62.25,122.75 61.75,123.25 61.75,123.25 62,124.25 
	62,124.25 62,124.75 61.75,125.25 61.75,125.25 61.75,126.5 61.75,126.5 61.5,127.25 61.5,127.25 61.25,128 61,128.75 61,128.75 
	61,130.25 61,130.25 60.75,132.75 60.75,132.75 60.5,135.5 60.5,135.5 60.5,135.5 60.5,135.5 60.5,135.75 60.5,136 60.5,136 
	60.25,137.25 60.25,137.25 60.25,138.25 60.25,138.25 60.25,138.75 60.25,138.75 60.25,141.75 60.25,141.75 59.5,145.5 59.5,145.5 
	59.75,149.75 59.75,149.75 59.75,150.5 59.75,150.5 59.75,151.5 59.75,151.5 59.25,152.5 59.25,152.5 59.25,156 59.25,156 
	59.5,159.25 59.5,159.25 59.5,159.75 59.5,160.25 59.5,160.25 59.5,160.25 59.5,160.25 59.5,161 59.5,161 59.5,162.75 59.75,163.5 
	59.5,164.25 59.5,164.25 59.5,165.25 59.5,166.25 59.75,168.25 59.75,168.25 59.5,169 59.5,169 59.75,171.25 59.75,171.25 
	59.75,172.25 59.75,172.25 60,174.5 60,175.75 59.75,176.5 59.75,176.5 59.75,176.75 59.75,176.75 59.5,176.5 59.5,176.5 
	59.25,176.25 59.25,176.25 59,177.25 59,178.5 59,178.5 59.25,179 59.25,179 59,179.5 59,179.5 59,180.5 59,181.25 59,181.25 
	59,183.25 59,183.25 59,185.25 58.75,187 58.75,187 58.5,188.25 58.75,189.5 58.75,189.5 58.75,191 58.75,191 59,193.25 59,193.25 
	59.25,195 59.25,195 59,195.75 59,195.75 59.25,196.5 59.25,196.5 59.25,198 59.25,198 59.25,198.5 59.25,199 59.25,199 
	59.5,200.25 59.75,201.5 59.75,201.5 59.5,202 59.5,202 59.5,203.25 59.5,203.25 59.5,204.5 59.5,204.5 59.5,205.75 59.75,206.75 
	59.75,206.75 59.75,209.5 59.75,209.5 59.75,214.5 59.75,214.5 59.75,217 59.75,217 59.75,217.5 60,218 60,218 59.75,218.75 
	59.75,218.75 59.5,220 59.75,221 59.75,221 59.75,222 59.75,223 59.75,223 59.5,223.5 59.5,223.5 59.5,226 59.5,226 59.25,226.75 
	59.25,227.75 59.25,227.75 59.5,228.25 59.5,229.25 59.5,229.25 59.5,230.25 59.25,231.25 59.25,231.25 59,232 59,232 59,232.5 
	59,232.5 58.75,232.5 58.75,232.5 59,233 59,233.75 59,233.75 58.75,234.75 58.75,234.75 58.5,236.25 58.5,236.25 58.75,236.75 
	58.75,237.25 58.75,237.25 58.5,238.25 58.5,238.25 58.25,239.5 58.25,239.5 58,240.25 58,240.25 58,240.75 58,240.75 57.75,241.25 
	57.75,241.25 57.5,242.5 57.5,242.5 57.5,243.5 57.5,243.5 57,244.75 56.75,246.25 56.5,248 56.25,250 56.25,250 56.25,251.5 
	56.25,252.25 56.5,252.75 56.5,252.75 56.75,252.75 56.75,252.75 56.75,253.5 56.75,253.5 57,253.5 57,253.5 57.25,254 57.25,254 
	58,255 58,255 58.25,255 58.25,255 58.75,255.75 58.75,255.75 60,256.5 61,257.5 61,257.5 61.25,258.25 61.75,258.75 61.75,258.75 
	62.25,259 62.75,259.25 62.75,259.25 63.25,259.75 63.75,260.25 63.75,260.25 64.5,260.75 65.25,261.25 65.25,261.25 65.5,261.75 
	65.5,261.75 66.25,262.25 66.25,262.25 66.75,262.75 67,263 67,263 67.75,263.5 67.75,263.5 69,264.75 69,264.75 69,265.25 
	69,265.25 69.5,265.75 69.5,265.75 69.5,266.75 69.75,267.5 69.75,267.5 69.5,268.25 69.25,268.75 68.25,269.25 68.25,269.25 
	66.75,269 66,268.5 65.5,268.25 65.5,268.25 65,268.25 64.75,268.5 64.25,269 64.25,269 63.25,269 63.25,269 62,269 61,268.5 
	59.5,267.5 59.5,267.5 58.75,267.25 58.75,267.25 58.25,267.25 58,267.5 57.75,268 57.75,268 57.25,268.25 56.5,268.25 56.5,268.25 
	56,268.25 55.5,268.25 55.5,268.25 54.25,267 54.25,267 54,266.75 54,266.75 53.75,266.25 53.75,266.25 53.75,266.25 53.75,266.25 
	53,265.5 53,265.5 52.5,265.25 52.25,265 51.75,265 51.75,265 51.5,265.25 51,265.75 51,265.75 49.25,267.25 48.25,267.75 47,268 
	47,268 46.25,267.25 46.25,267.25 46.25,266.5 46.5,266 47.25,265 47.25,265 47.25,264.25 47.25,264.25 47.75,263.25 47.75,263.25 
	47.75,263 47.75,263 48,262.5 48,262 48,262 48.5,260.75 48.5,260.75 48.75,259.75 48.75,259.75 49.5,258 50,256 50,256 50.5,255.5 
	50.5,255.5 50.75,254.75 51,254 51,254 51,253.75 51,253.75 51.25,253 51.25,252.25 51.25,252.25 51.75,251.5 51.75,251.5 52,250.5 
	52,250.5 52,250 52,250 52.25,249.25 52.25,249.25 52.25,248.25 52.25,248.25 52.75,246.25 52.75,246.25 52.75,245.75 52.75,245.75 
	53.25,243.5 53.25,243.5 53.25,243 53.25,242.75 53.25,242.5 53.25,242.5 53.5,241.75 53.5,240.75 53.5,240.75 54,239.5 54,239.5 
	54,238.5 54,238.5 54.25,237 54.25,237 54.5,236.5 54.5,236.5 54.5,234.25 54.5,234.25 54.75,233.5 54.75,233.5 54.75,231.5 
	54.75,231.5 55,230.25 55,229 55,229 55,227.5 55.5,226 55.5,226 55.5,223.5 55.5,223.5 55,222.5 55,222.5 55,222 55.25,221.5 
	55.5,221 55.5,220.5 55.5,220.5 55,219.25 55,219.25 54.75,218 55,216.75 55,216.75 55,216.5 55,216 55,216 54.75,215.25 54.75,214 
	54.75,214 54.25,212.5 54.25,212.5 54.25,212.25 54.25,211.75 54.25,211.75 54,210.75 54,210.75 54,209.25 53.75,207.75 
	53.75,207.75 53.75,205.5 53.75,205.5 53.25,204 53.25,204 53.25,203.25 53.25,203.25 53,202.5 53,202.5 52.75,200.5 52.75,200.5 
	52.5,199.5 52.25,198.5 52.25,198.5 51.25,196 51.25,196 51.25,195.5 51,195 51,195 50.75,193.75 50.75,193.75 50.25,193 50.25,193 
	50.25,192.25 50.25,192.25 50,192 50,192 49.5,191 49.5,191 48.5,190.25 48.5,190.25 48.25,189.25 48.25,189.25 47,187.75 
	47,187.75 46.75,187.25 46.75,187.25 46.75,187.25 46.75,187.25 46.5,186.5 46.5,186.5 46,186.25 46,186.25 45.5,185.25 
	45.5,185.25 43.5,183.5 43.5,183.5 42.75,182.75 42.75,182.75 42.25,182.5 42.25,182.5 42,182.25 42,181.75 42,181.75 41.5,181.25 
	40.75,180.75 39.25,180.25 39.25,180.25 38,180.25 36.75,180.5 36.75,180.5 36,180.25 35,180.5 35,180.5 33.75,181.25 32.5,182.5 
	32.5,182.5 32.25,183.25 32.25,183.25 31.25,185.25 31.25,185.25 31,186.25 31,187.25 31,187.25 30.75,189.25 31,191.75 31,191.75 
	31,194 31,196 31,196 31,198 31,198 31,199.75 30.75,201.75 30.75,201.75 30.75,203 31,203.5 30.75,204.25 30.75,204.25 
	30.75,204.75 30.75,204.75 30.75,206.75 30.75,206.75 30.5,207.5 30.5,208.25 30.5,210 30.5,210 30.5,211.5 30.5,211.5 30.5,212.5 
	30.5,213.5 30.5,213.5 30.5,214.5 30.5,214.5 30.5,216 30.5,216 30.75,217.75 30.75,219.5 30.75,219.5 31,221.5 31,221.5 31,222.25 
	31,222.25 31,224.5 31,224.5 30.75,225 30.75,225.5 30.75,225.5 31,226 31.5,226.75 31.5,226.75 31.5,228 31.25,229.25 
	31.25,229.25 31,230.75 31,230.75 30.5,232.5 30.5,232.5 30.25,233.75 30.25,233.75 30,235.25 29.75,236.5 29.75,236.5 
	29.75,238.25 29.75,238.25 29.25,239.5 29.25,239.5 29.25,240 29.25,240 29,241 28.75,242.25 28.75,242.25 28.75,243 28.75,243 
	28.5,243.5 28.5,243.5 28.5,244.25 28.5,245 28.75,246 28.5,247 28.5,247 28.5,249.25 28.5,251.75 28.5,251.75 28.5,253.5 
	28.5,253.5 28,256.25 28,256.25 28,257.5 28,257.5 27.75,259.25 27.75,260.75 27.75,260.75 28.5,262 28.5,262 29.5,262.25 
	30.5,262.75 30.5,262.75 30.75,263.5 30.75,263.5 31.5,263.75 32.25,264.25 32.25,264.25 32.75,264.5 33,265 33,265 33,265.5 
	32.75,266 32.75,266 32.25,266.25 31.75,266.25 31.75,266.25 31.5,266.25 31.25,266 30.75,265.5 30.75,265.5 30.25,265.25 
	30,265.25 29,265 29,265 28.75,265 28.5,264.75 28.5,264.75 28.25,265.5 28.25,266.25 27.75,266.75 27.25,267 27.25,267 27,267 
	26.75,266.75 26.75,266.75 26.5,266.75 26.5,266.75 26,266.5 25.75,266 25.75,266 25.25,266.25 24.75,266.5 24.25,267 24.25,267 
	23.75,267 23.75,267 23.5,266.75 23,266.5 22.5,265.75 22.5,265.75 22,266 21.75,266.25 21.75,266.25 21,266.25 21,266.25 
	20.75,266.25 20.75,266.25 20.25,266.5 20,266.5 20,266.5 20,266.5 19.25,266.25 18.75,266 18.75,266 18.5,265.5 18.75,265.25 
	19.25,264.75 20,264.25 20.5,263.75 20.5,263.75 20.75,263 21,262.25 21,262.25 21.25,262 21.25,262 21.5,261.25 21.5,261.25 
	21.5,261.25 21.5,261.25 21.5,260.75 21.5,260 21.5,258.5 21.5,258.5 21.75,256.5 22,254.5 22,254.5 21.75,251.5 21.75,251.5 
	22,250.25 22,249 22,249 22,248.25 22,248.25 22.25,247.5 22.25,246.75 22.25,246.75 23,246 23,246 23,244.25 23,244.25 23,243.5 
	23,243.5 23,242.75 23,242.75 23.25,241.5 23.25,240.25 23.25,240.25 23.25,239.25 23.25,238 23.5,236 23.5,236 23.5,235 
	23.5,233.75 23.5,233.75 23.5,232.75 23.5,232.75 23.5,231.75 23.25,230.5 23.25,230.5 23.25,228.75 23.25,228.75 23.25,226.25 
	23.25,224.75 23.25,223.75 23.25,223.75 23.25,219.5 23.25,219.5 22.75,218.75 22.75,218.75 22.5,218 22.5,217.5 22.5,217.5 
	22.25,216 22.25,216 22.25,215 22.25,215 22.25,210.5 22.25,210.5 22.25,209.25 22.25,207.75 22.25,207.75 22.25,206.75 
	22.25,206.75 22,205.5 22,204.5 22,204.5 22.25,204 22.25,204 22.25,202.5 22.25,202.5 22.5,202 22.5,202 22.75,199.25 
	22.75,199.25 23.25,196.5 23.25,196.5 23.25,195.75 23.5,195 23.5,195 23.5,192 23.5,192 23.75,191.25 23.75,191.25 23.75,190.5 
	23.75,190.5 24,189 24,189 24.25,188.5 24,187.75 24,187.25 24,186.75 24,186.75 24,186.5 24,186.5 24,185.25 24,185.25 25,181.25 
	25,181.25 25,179.25 25,179.25 25.25,178.75 25.25,178.75 25.25,177 25.25,177 25.5,175.25 25.75,173.5 25.75,173.5 25.5,172.75 
	25.5,172.25 25.5,172.25 25.75,171.75 25.75,171.75 26,170.25 26,170.25 26.25,170 26.25,170 26.25,169 26.25,169 26.5,168.75 
	26.5,168.75 26.5,167.5 26.5,167.5 26.75,166.25 26.75,166.25 26.75,165.5 26.75,164.75 26.75,164.75 27.25,164.25 27.25,164.25 
	27.5,163 27.5,163 27.5,161.5 27.5,161.5 27.75,159 27.75,159 27.75,158 27.75,158 28,157.25 28,157.25 28.5,156 28.5,156 28.5,155 
	28.5,155 28.75,154.5 28.75,154.5 29,153.25 29,153.25 29.25,151.75 29.25,151.75 29.5,150.25 29.5,150.25 30,148.5 30,148.5 
	30,148 30,148 30.25,146.25 30.75,144.75 30.75,144.75 30.75,143.5 30.75,143.5 31.5,140.5 31.5,140.5 31.5,139.75 31.75,139 
	31.75,139 31.75,138 31.5,137.5 31.5,137.25 31.5,137.25 31,137.25 30.5,137 30.5,137 29,135.5 29,135.5 28.25,135.25 28.25,135.25 
	27.25,134.5 27.25,134.5 26.25,134 26.25,134 25,133.25 25,133.25 24.5,133 23.75,132.5 23.75,132.5 22.25,131.25 22.25,131.25 
	21.5,131 21,131 21,131 20.25,130.25 20.25,130.25 19.75,130 19.75,130 18.75,129.25 18.75,129.25 17.25,128.25 17.25,128.25 
	15.5,127 14.25,125.75 14.25,125.75 13.75,125 13.75,125 13.5,124.75 13.5,124.75 13,124 13,124 12.75,124 12.75,124 12.25,122.5 
	12.25,122.5 12.25,122.5 12.25,122.5 12,121.75 12,121.75 11.5,121.5 11.5,121.5 10.75,120.25 10.75,120.25 10.75,119.5 10.5,118.5 
	10.5,118.5 10.25,117.5 9.75,116.75 9.75,116.75 8.5,116.25 8.5,116.25 7.75,116.25 7.25,116.25 7.25,116.25 6.5,115.75 6.5,115.75 
	5.75,115.5 5.25,115.25 5.25,115.25 3.75,113.75 3.75,113.75 3.5,113.5 3.5,113.5 2.75,112.25 2.75,112.25 2,111 2,111 1.75,110.25 
	1.75,110.25 1.25,109.75 1.25,109.75 1.25,109.25 1.25,108.75 1.5,107.75 1.5,107.75 1.75,107.75 1.75,107.75 2.25,107.5 
	2.75,107.5 3.75,108 3.75,108 4.25,108.5 4.5,109.25 4.5,109.25 4.75,109.5 4.75,109.5 4.75,109.5 4.75,109.5 5,110 5,110 5,110.25 
	5,110.25 5.5,110.75 5.75,111.5 5.75,111.5 6.5,111.75 6.5,111.75 7,112.25 7.25,112.5 7.25,112.5 8.25,112.5 9.25,112.25 
	10.5,112.25 11,112.25 11.25,112.5 11.25,112.5 12,113 12.25,113.75 12.75,115.25 12.75,115.25 13,115.75 13,115.75 13,117 13,117 
	13.5,118 13.5,118 13.5,119 13.5,119 13.75,119.5 13.75,119.5 14.25,120 14.25,120 14.25,120.5 14.5,121 14.5,121 14.75,121.25 
	14.75,121.25 15,121.75 15,121.75 15.5,122.5 16.25,123.25 16.25,123.25 16.75,124 17,124.5 17,124.5 18,125 19,125.5 19,125.5 
	19.25,126 19.25,126 20,126.25 20.5,126.5 20.5,126.5 21,127 21,127 21.5,127.25 21.5,127.25 22.75,128 22.75,128 23,128.25 
	23,128.25 23,128.5 23,128.5 24,128.75 25,128.75 25,128.75 25.5,129.75 25.5,129.75 27,130.75 27,130.75 27.5,131.5 27.5,131.5 
	28.5,131.75 28.5,131.75 29.5,132.5 29.5,132.5 30.25,133 31,133 31,133 32,133 32,133 33.5,133.5 34.75,134 34.75,134 35.25,134 
	35.75,134 35.75,134 36.5,133.5 36.5,133.5 36.75,133.25 36.75,133.25 37.5,133.25 37.5,133.25 38.5,132.75 39.25,132.25 
	39.25,132.25 40,131.25 40.5,130.25 40.5,130.25 41.25,129 41.75,127.75 41.75,127.75 42,127.25 42,126.5 42,125.25 42,125.25 
	42.25,124.75 42.25,124.75 42.25,124 42.5,123.25 42.5,123.25 42.5,122.25 42.5,122.25 42.75,121.75 42.75,121.75 43,121 43,121 
	43.25,120 43.25,120 43.5,119.25 43.5,119.25 43.5,119.25 43.5,119.25 43.5,118.75 43.5,118.75 43.75,118 43.75,118 43.75,117.5 
	43.75,117 43.75,117 44.25,116.25 44.5,115.5 44.5,115.5 44.5,115 44.25,114.75 44.25,114.25 44.25,114.25 45.25,111 45.25,111 
	45.5,109.75 45.5,108.5 45.5,108.5 46.25,107 46.25,107 46.5,105.5 46.75,104.25 46.75,104.25 46.75,103.75 46.75,103.75 47,102.25 
	47,101 47,101 47,100.5 47,100.25 47,100.25 47.25,99 47.25,98 47.25,98 47.5,97.25 47.5,97.25 48.25,94.75 48.25,94.75 48.25,94 
	48,93.5 48,93 48,92.25 48,92.25 48.75,90 49.75,87.75 49.75,87.75 49.75,87 49.75,87 50,86 50,86 50.25,85.25 50.75,84.5 
	50.75,84.5 50.75,83.5 50.75,82.25 50.75,82.25 50.75,82 50.5,81.75 50.5,81.75 51,80.75 51,80.75 51.25,79.25 51.25,79.25 
	51.5,78.25 51.5,78.25 51.5,77.25 51.5,77.25 51.75,76.5 51.75,76.5 52,75.25 52,74 52,74 51.75,73.25 51.75,73.25 52.25,70.5 
	52.25,69.25 52,68 52,68 52,67.75 52,67.5 52,67.5 52,67 51.75,66.75 51.75,66.75 51.75,64.75 51.75,64.75 52,64.5 52,64.25 
	52,63.75 52,63.75 52,63.5 52,63.5 51.75,63 51.75,62.25 51.75,62.25 51.5,61.75 51.5,61.75 51.25,60.25 51.25,60.25 51.25,59.25 
	51.25,59.25 50.75,58.75 50.75,58.75 51,57.5 51,57.5 50.75,56.25 50.5,55.25 50.5,55.25 51,55.25 51.5,55.25 51.5,55.25 "/>
<polygon fill-rule="evenodd" clip-rule="evenodd" fill="#409C46" points="105.25,54.75 105.25,54.75 105.75,55.25 105.75,55.25 
	106.75,55.25 106.75,55.25 107.75,55.75 107.75,55.75 108.75,56.25 109.5,56.75 109.5,56.75 110,57.25 110.25,57.75 110.25,57.75 
	110.25,58.25 110,58.25 110,58.25 109,58 109,58 108,57.75 107,57.75 107,57.75 105.75,57.25 105.75,57.25 105.25,57 105.25,57 
	103,56 103,56 102.75,55.75 102.75,55.75 103,55.25 103.25,55 103.75,54.75 103.75,54.75 104.5,54.75 105.25,54.75 105.25,54.75 "/>
<polygon fill-rule="evenodd" clip-rule="evenodd" fill="#FDF162" points="48.75,59.25 48.75,59.25 49.25,59.5 49.25,60 49.25,61 
	49.25,61 49.5,63 49.5,64.75 49.5,64.75 49.5,66 49.5,66 49.75,66.75 49.75,67.5 49.75,67.5 49.5,68 49.5,68 49.25,68 49,68.25 
	49,68.25 47.75,67.75 46.75,67.25 46.75,67.25 46.25,67 45.5,67 45.5,67 44.25,66.5 42.75,66 42.75,66 42,65.75 41.5,65.5 41.5,65 
	41.5,65 41.75,64.75 42,64.5 43,63.75 43,63.75 43.25,63.25 43.25,63.25 44.25,62.75 44.25,62.75 45.5,61.5 45.5,61.5 46.25,61 
	46.25,61 46.5,60.75 46.5,60.75 47,60.5 47,60.5 48.5,59.25 48.5,59.25 48.5,59.25 48.5,59.25 48.75,59.25 48.75,59.25 "/>
<polygon fill-rule="evenodd" clip-rule="evenodd" fill="#D86699" points="81,61.25 81,61.25 81.5,61.75 81.5,61.75 81.5,62.25 
	81.5,62.5 81,63.25 81,63.25 81,63.5 81.25,64 81.25,64.25 81,64.5 81,64.5 80.75,64.75 80.75,64.75 80.25,65.25 80.25,65.25 
	79.25,65.75 79.25,65.75 78.75,66.25 78.75,66.25 78,66.5 77.5,66.75 77.5,66.75 76.5,67.75 75.5,68.5 75.5,68.5 75.25,69 75.25,69 
	74.5,69.5 73.5,69.75 73.5,69.75 72.25,70.75 72.25,70.75 71,71.25 71,71.25 70.5,71.5 70.25,71.75 70,71.5 70,71.5 69.5,71.25 
	69.5,71.25 69.5,69.75 69.75,68.75 69.75,68.75 70,68 70,68 70.25,67.5 71,67 71,67 71.75,67 71.75,67 72.25,66.5 72.25,66.5 
	73,66.25 73.5,66 73.5,66 74.25,65.25 74.25,65.25 75,64.75 75,64.75 75.25,64.5 75.25,64.5 76.75,63.75 76.75,63.75 77.25,63 
	77.75,62.25 77.75,62.25 78.5,62 79.25,61.75 79.25,61.75 79.75,61.5 80.5,61.25 80.5,61.25 80.5,61.25 80.5,61.25 81,61.25 
	81,61.25 "/>
<polygon fill-rule="evenodd" clip-rule="evenodd" fill="#FDF05E" points="49.75,69 49.75,69 50,69.5 50,69.5 50.25,70 50.5,71 
	50.5,72 50.25,72.5 50.25,72.5 49,72.5 48.25,72.25 48.25,72.25 47.75,72.25 47.75,72.25 47,71.75 47,71.75 46.25,71.75 
	46.25,71.75 46.25,71.5 46.25,71.5 45,71.25 45,71.25 45,70.75 45,70.75 45,70.5 45.25,70.25 45.75,70 45.75,70 46.5,69.75 
	46.5,69.75 47,69.75 47,69.75 48,69.25 48.75,69 48.75,69 48.75,69 48.75,69 49.75,69 49.75,69 "/>
<polygon fill-rule="evenodd" clip-rule="evenodd" fill="#FDF162" points="42.25,71.5 42.25,71.5 43.5,71.25 43.5,71.25 44,71.75 
	44,71.75 44.5,72 45,72 45,72 45,72.25 45,72.25 45.75,72.5 45.75,72.5 45.75,72.5 45.75,72.5 46.25,72.5 46.25,72.5 47,73 47,73 
	48.25,73 48.25,73 49.25,73.5 49.75,73.75 50,74.25 50,74.25 50.25,74.75 50.25,75.25 50,76.5 50,76.5 50,77.5 50,77.5 50,78 50,78 
	50,79.5 50,79.5 49.75,80 49.75,80 49.25,80 48.75,80 48,79.5 48,79.5 47.25,79.5 47.25,79.5 47,79 46.75,78.5 46.75,78.5 
	45.75,77.75 45.75,77.75 45.5,77.25 45.5,77.25 43.5,75.5 42.5,74.75 41.5,73.75 41.5,73.75 41,72.75 40.5,72 40.5,71.5 40.5,71.5 
	40.75,71.25 41,71 41,71 41.5,71.25 42.25,71.5 42.25,71.5 "/>
<polygon fill-rule="evenodd" clip-rule="evenodd" fill="#D86699" points="71.75,78.25 71.75,78.25 72.5,78.5 72.5,78.5 73,78.5 
	73.5,78.25 74,78.25 74.5,78.25 74.5,78.25 75.25,78.5 75.25,78.5 76.5,78.5 76.5,78.5 78.25,79.25 78.25,79.25 79,79.25 79,79.25 
	79.25,79.5 79.25,79.5 80.25,79.5 80.25,79.5 80.25,79.75 80.25,79.75 81,80 81,80 81.25,80 81.25,80 82,80.25 82.75,80.5 
	83.5,80.75 84,81.25 84,81.25 84,83.5 84,83.5 83.5,83.75 83.5,83.75 81.5,83.75 80.5,83.75 79.5,83.5 79.5,83.5 78.25,83 78.25,83 
	77.75,82.75 77.75,82.75 77.25,82.5 77.25,82.5 76,82.5 76,82.5 75.75,82.25 75.75,82.25 74.75,82 74.75,82 73.75,81.5 73.75,81.5 
	73,81.5 72,81.5 70,81.5 70,81.5 69.5,81.25 69.5,81.25 69.5,80.5 69.75,80 69.75,80 69.75,79.5 69.75,79.5 70,78.5 70.5,77.75 
	70.5,77.75 71.25,78 71.75,78.25 71.75,78.25 "/>
<polygon fill-rule="evenodd" clip-rule="evenodd" fill="#FDF162" points="49.25,83.75 49.25,83.75 49.25,84.5 49,85.5 48.25,87 
	48.25,87 48.25,88.25 48.25,88.25 47.75,90 47.25,91.5 47.25,91.5 47.25,92.25 47.25,92.25 47,92.75 46.75,93 46.5,93.25 46,93.25 
	46,93.25 45.25,92.25 44.25,91.5 44.25,91.5 43.75,91.25 43.75,91.25 42.5,90 42.5,90 42,89.75 41.25,89.5 41.25,89.5 39.75,88.5 
	39.75,88.5 39,88.25 39,88.25 38.5,87.75 38.5,87.75 38.75,87 38.75,87 39.75,87 40.75,86.5 40.75,86.5 42.25,86 43.75,85.25 
	43.75,85.25 44.5,85 45.5,84.75 45.5,84.75 46.25,84.25 46.25,84.25 47,84 47,84 47.75,83.75 48.25,83.75 48.25,83.75 48.25,83.5 
	48.25,83.5 48.75,83.5 49.25,83.75 49.25,83.75 "/>
<polygon fill-rule="evenodd" clip-rule="evenodd" fill="#D86699" points="95,67 95,67 95.5,67.75 95.5,67.75 95.5,68.25 95.5,68.25 
	96,69 96,69 96.25,70 96.25,70 96.5,71.25 96.5,72 96.5,72.5 96.5,72.5 96,73 96,73 95.75,73.5 95.75,73.5 96,74 96.25,74.25 
	96.25,74.25 99,74.25 99,74.25 100.25,74.25 100.25,74.25 101.5,74 101.5,74 102.25,73.75 103.25,73.5 103.25,73.5 104.25,74.75 
	104.25,74.75 104.5,75.5 104.5,75.5 104.75,76.75 104.75,77.25 104.5,77.75 104.5,77.75 103.5,78.5 102.5,79 102.5,79 102,79.25 
	102,79.25 98.5,81.75 98.5,81.75 98,81.75 98,81.75 97.75,82 97.75,82 97.5,82.25 97.5,82.25 97.25,82.25 97.25,82.25 96.75,82.5 
	96.75,82.5 96.5,83.5 96.5,84 96.5,84.5 96.5,84.5 96.75,85.75 96.75,85.75 98,87.75 98,87.75 98.25,88.25 98.25,88.25 98.75,89 
	98.75,89 98.5,89.75 98.25,90 98.25,90 97.5,91.75 97.25,92.5 96.75,93.25 96.75,93.25 96.5,93.25 96,93.25 95.5,93.25 95.25,93.5 
	95.25,93.5 94.5,93.5 94.25,93.75 94,94.25 93.75,94.75 93.75,94.75 92.75,96.25 92.75,96.25 92.5,96.75 92.5,96.75 91.25,98.25 
	91.25,98.25 91.25,98.75 91.25,98.75 90.5,99.5 90.5,99.5 89.5,99.5 88.5,99.5 88.5,99.5 88,99 88,99 88,98.25 88,98.25 87.75,98 
	87.75,98 87.75,97 88,95.75 88,95.75 88,94.25 88,94.25 88.25,93 88.25,93 88.25,91.25 88.25,91.25 88.5,90.75 88.5,90.75 89,89 
	89,87.75 89,87 89,87 88.5,86.25 88.25,86 87.25,85.25 87.25,85.25 86.75,85 86,84.75 86,84.75 85.75,84.25 85.75,83.75 
	85.75,82.75 85.75,82.75 86,82.25 86,81.5 86,81.5 86.5,81.25 87.25,80.75 88.75,80.25 88.75,80.25 90.5,79.5 90.5,79.5 90.75,79 
	90.75,79 91.75,78.25 91.75,78.25 92.25,78 92.25,78 92.75,77.5 93,77 93,77 93,76.5 93,76.25 93,76.25 92.75,74.75 92.25,73.5 
	92.25,73.5 92.25,73 92.25,73 91.25,72 91.25,72 91.25,71.5 91,71 91,71 90.5,70 90.5,70 90.5,69.25 90.5,69.25 90.25,68.5 
	90.25,68 90.25,67.75 90.25,67.75 91,66.75 91,66.75 92.25,66.5 92.25,66.5 93.75,66.75 95,67 95,67 "/>
<polygon fill-rule="evenodd" clip-rule="evenodd" fill="#409C46" points="109,73.75 109,73.75 109,74 108.75,74.25 108.75,74.25 
	108.75,74.75 108.25,75 107.25,75.5 107.25,75.5 107,76 107,76 106.5,76.25 106,76.25 106,76.25 105.75,75.5 105.75,75.5 105.75,74 
	105.75,74 106,73.75 106,73.75 106.5,73.5 106.5,73.5 107,73.5 107.5,73.5 107.5,73.5 108.25,73.5 109,73.75 109,73.75 "/>
<polygon fill-rule="evenodd" clip-rule="evenodd" fill="#CB2628" points="100.75,90 100.75,90 101.25,90.75 101.25,90.75 
	101.75,91.75 101.75,91.75 102.25,92 102.75,92.5 102.75,92.5 103,93 103,93.5 103,93.5 102.75,93.75 102.75,93.75 102,93.75 
	101.5,93.5 101.5,93.5 100.5,93.25 100.5,93.25 99.25,92.75 99.25,92.75 99,92 99.25,91.25 100,90 100,90 100,90 100,90 100.75,90 
	100.75,90 "/>
<polygon fill-rule="evenodd" clip-rule="evenodd" fill="#CB2628" points="90.75,63.5 90.75,63.5 91.25,63.75 91.25,63.75 
	91.75,64.5 91.75,65 91.75,65.5 91.75,65.5 91,66.25 90.5,66.25 90.25,66.25 90.25,66.25 90,66 89.75,65.75 89.75,65 89.75,65 
	89.75,64.75 89.75,64.25 89.75,64.25 90.25,63.5 90.25,63.5 90.75,63.5 90.75,63.5 "/>
<polygon fill-rule="evenodd" clip-rule="evenodd" fill="#409C46" points="90.75,100.25 90.75,100.25 91,100.5 91.25,100.75 
	91.5,101.75 91.75,103.75 91.75,103.75 91.75,104.5 91.75,105 91.75,105 91.5,105.25 91.5,105.25 91,105.25 90.75,105 90.75,105 
	89.75,103.5 89.75,103.5 89.25,102.5 89,101.5 89,101.5 89,100.75 89.5,100.5 90.25,100.25 90.25,100.25 90.75,100.25 90.75,100.25 
	"/>
</svg>
